<?xml version="1.0" standalone="no"?>
<!DOCTYPE svg PUBLIC "-//W3C//DTD SVG 20010904//EN"
 "http://www.w3.org/TR/2001/REC-SVG-20010904/DTD/svg10.dtd">
<svg version="1.0" xmlns="http://www.w3.org/2000/svg"
 width="512.000000pt" height="512.000000pt" viewBox="0 0 512.000000 512.000000"
 preserveAspectRatio="xMidYMid meet">
<metadata>
Created by potrace 1.16, written by Peter Selinger 2001-2019
</metadata>
<g transform="translate(0.000000,512.000000) scale(0.100000,-0.100000)"
fill="#000000" stroke="none">
<path d="M259 4861 l-259 -259 0 -108 0 -108 76 74 c97 94 542 540 609 609
l49 51 -108 0 -108 0 -259 -259z"/>
<path d="M780 4990 l0 -130 -133 0 -133 0 -119 -347 c-65 -192 -140 -411 -167
-488 l-48 -140 -90 -94 -90 -93 0 -106 0 -106 30 29 c17 16 30 26 30 24 0 -3
-14 -45 -30 -94 -17 -49 -30 -95 -30 -102 0 -10 55 -13 260 -15 l261 -3 -261
-262 -260 -262 0 -108 0 -107 76 74 c42 41 211 209 375 373 165 163 306 297
314 297 13 0 15 -43 15 -323 l0 -323 -390 -391 -390 -391 0 -108 0 -108 76 74
c42 41 218 216 390 387 l314 313 0 -338 0 -338 -390 -391 -390 -391 0 -108 0
-108 76 74 c42 41 218 216 390 387 l314 313 0 -338 0 -337 -390 -392 -390
-392 0 -51 0 -50 58 0 57 0 123 120 122 120 0 -120 0 -120 575 0 575 0 0 155
0 155 -90 0 -90 0 245 245 c134 135 247 245 250 245 3 0 5 -112 5 -250 l0
-250 83 0 84 0 -144 -144 c-78 -79 -143 -147 -143 -150 0 -3 46 -6 103 -6
l102 0 133 130 132 130 0 -130 0 -130 155 0 155 0 0 150 0 150 203 0 204 0
-144 -144 c-78 -79 -143 -147 -143 -150 0 -3 46 -6 103 -6 l102 0 153 150 153
150 338 0 338 0 -144 -144 c-78 -79 -143 -147 -143 -150 0 -3 46 -6 103 -6
l102 0 153 150 153 150 205 0 204 0 0 -134 c0 -79 -4 -137 -10 -141 -31 -19 4
-25 155 -25 l165 0 0 61 0 61 89 89 90 89 101 0 100 0 -2 937 -3 938 -22 41
-22 41 25 24 c24 24 25 30 22 130 l-3 104 -69 -68 c-37 -37 -72 -67 -76 -67
-5 0 -30 11 -57 24 -67 34 -158 47 -235 35 -123 -20 -223 -94 -285 -210 -28
-53 -28 -56 -31 -260 l-3 -207 -136 -136 c-75 -75 -137 -136 -139 -136 -2 0
-4 16 -4 35 l0 35 -300 0 -301 0 146 145 146 145 155 0 154 0 0 155 0 154 520
522 520 522 0 103 c0 57 -3 104 -6 104 -4 0 -223 -216 -487 -480 l-481 -480
-338 0 -337 0 824 826 825 826 0 104 c0 57 -3 104 -6 104 -4 0 -425 -418 -937
-930 l-930 -930 -244 0 c-134 0 -243 -2 -243 -4 0 -3 18 -37 39 -78 39 -72 63
-148 76 -238 l7 -45 -139 -138 -138 -139 -5 174 c-5 168 -6 175 -36 238 -18
36 -45 80 -61 99 l-29 34 1323 1324 1323 1324 0 60 0 59 -51 0 -52 0 -1345
-1345 c-1135 -1134 -1349 -1344 -1366 -1338 -12 3 -55 6 -96 6 -173 -2 -316
-109 -364 -272 -10 -32 -16 -92 -16 -146 l0 -92 -370 -370 -370 -370 0 339 0
338 1573 1574 c864 865 1594 1596 1622 1625 l49 51 -108 0 -109 0 -1513 -1513
-1514 -1514 0 339 0 338 280 280 280 280 110 0 c60 0 110 1 110 3 0 2 -11 37
-25 77 -14 40 -25 77 -25 82 0 4 341 349 758 766 416 418 779 782 807 811 l49
51 -108 0 -108 0 -726 -725 c-399 -399 -729 -722 -733 -718 -3 5 -43 115 -88
247 -68 199 -79 241 -69 254 7 9 198 201 423 428 226 226 432 434 460 463 l49
51 -108 0 -108 0 -391 -390 c-215 -214 -392 -388 -393 -387 -2 1 -41 114 -88
250 l-85 248 87 88 c48 49 109 112 137 140 l49 51 -106 0 -107 0 -133 -130
c-115 -112 -137 -130 -165 -130 l-33 0 0 130 0 130 -155 0 -155 0 0 -130z
m631 -1673 c-6 -8 -81 -83 -166 -169 l-155 -155 0 169 0 168 166 0 c138 0 165
-2 155 -13z m2108 -1493 c-13 -15 -78 -80 -144 -145 l-119 -119 -188 0 -188 0
0 -188 0 -188 -114 -114 c-63 -63 -126 -126 -140 -139 l-26 -24 0 336 0 336
137 138 138 138 334 -3 334 -3 -24 -25z m-1689 -457 l0 -334 -362 -361 c-199
-199 -365 -362 -370 -362 -4 0 -8 148 -8 330 l0 330 363 364 c199 201 365 365
370 365 4 1 7 -149 7 -332z m2530 -147 l0 -310 -315 0 -315 0 140 140 c127
126 144 140 175 140 33 0 35 2 35 35 0 32 13 48 135 170 74 74 137 135 140
135 3 0 5 -139 5 -310z m-601 -56 c-13 -14 -76 -77 -139 -140 l-114 -114 -338
0 -338 0 140 140 141 140 336 0 336 0 -24 -26z m-2979 -679 l0 -175 -175 0
-175 0 173 174 c94 96 173 175 175 175 1 1 2 -78 2 -174z"/>
</g>
</svg>
